<?xml version="1.0" encoding="utf-8"?>
<!-- Generator: Adobe Illustrator 26.0.3, SVG Export Plug-In . SVG Version: 6.00 Build 0)  -->
<svg version="1.1" id="Warstwa_1" xmlns="http://www.w3.org/2000/svg" xmlns:xlink="http://www.w3.org/1999/xlink" x="0px" y="0px"
	 viewBox="0 0 1920 715" style="enable-background:new 0 0 1920 715;" xml:space="preserve">
<style type="text/css">
	.st0{fill-rule:evenodd;clip-rule:evenodd;fill:#22CB83;}
	.st1{fill:#FFFFFF;}
</style>
<g>
	<path class="st0" d="M344.4,270.6c6.1-20.3,24.7-34.2,45.9-34.2h63.3c22.5,0,38.6,21.7,32,43.3l-6.6,21.6
		c-4.8,15.9-19.5,26.7-36.1,26.7c-43.9,0-72.5,46.1-53.1,85.4L444,516.3h49.6l-63.8-122.4c-4.8-9.8,2.3-21.2,13.2-21.2
		c36.2,0,68.1-23.7,78.6-58.3l6.6-21.6c15.2-50.1-22.3-100.8-74.6-100.8h-63.3c-40.8,0-76.8,26.8-88.5,66l-55.7,186.5
		c-6.1,20.3-24.7,34.2-45.9,34.2h-72.6l-6.2,44.5h78.8c40.8,0,76.8-26.8,88.5-66L344.4,270.6L344.4,270.6L344.4,270.6z"/>
	<path class="st1" d="M624.9,359.3l1.6-13.4h26.7L639,460.5h-26.7l1.4-12c-3.8,4.1-9.5,9-15.2,11.4s-13.6,4.1-21,4.1
		c-16.9,0-27-7.1-32.7-12.5c-9-8.7-15.8-24-15.8-41.4s6-37.3,19.9-51.2c11.7-11.7,25.9-16.1,41.9-16.1c7.6,0,14.4,1.4,21,4.9
		C616.4,350.3,621,354.1,624.9,359.3L624.9,359.3L624.9,359.3z M592.2,366.9c-10.9,0-18.2,4.6-22.9,9c-7.4,7.1-12.8,19.3-12.8,32.1
		c0,10.1,3.8,18.5,9,24c4.9,5.2,11.2,8.2,19.3,8.2c12,0,20.2-5.2,25-10.1c7.6-7.9,11.7-20.1,11.7-31.3c0-9.5-3.3-18.5-9-24.2
		C608.5,370.4,602,366.9,592.2,366.9L592.2,366.9L592.2,366.9z"/>
	<path class="st1" d="M693,447.2l-9.3,75.7H657l21.8-177h26.7l-1.6,12.5c3.8-5.2,8.2-8.4,13.6-10.9c6.8-3.3,13.3-4.6,20.4-4.6
		c14.4,0,28,6,36.5,14.7c8.4,8.7,14.4,22.3,14.4,38.9c0,19.9-8.2,39.2-19.3,51.2c-9.8,10.3-22,16.6-38.1,16.6
		c-9.5,0-18.5-1.9-25.9-6.3C700.6,455.1,696.2,451,693,447.2L693,447.2z M731.6,366.9c-8.4,0-15.8,1.6-22.9,8.4
		c-7.9,7.6-12.5,20.4-12.5,33.2c0,6.5,1.1,15.8,7.6,22.6c4.9,5.2,12.5,9,21.8,9s16.6-3.3,22.6-9.3c7.3-7.3,13.1-19.6,13.1-32.1
		c0-9.5-3.3-17.7-8.2-23.1C747.4,369.4,740.3,366.9,731.6,366.9L731.6,366.9L731.6,366.9z"/>
	<path class="st1" d="M815.6,345.9h26.7l-14.2,114.6h-26.7L815.6,345.9z M817.2,301.3c0-5.2,1.9-10.3,5.7-14.2
		c3.3-3.3,8.2-5.7,13.9-5.7c4.6,0,8.4,1.6,10.9,4.1c2.4,2.4,4.4,6,4.4,10.3s-1.9,10.1-5.4,13.9c-3.3,3.5-8.7,6-14.4,6
		c-5.2,0-8.4-1.9-10.6-4.1C819.1,309.4,817.2,305.6,817.2,301.3L817.2,301.3z"/>
	<path class="st1" d="M950.8,359.3l12-97.2h26.7l-24.5,198.5h-26.7l1.4-12c-4.9,5.7-10.1,9.3-14.7,11.4c-6.5,3.3-12.5,4.1-19.6,4.1
		c-13.6,0-24.5-3.5-34-13.1c-10.1-10.1-16.3-25.6-16.3-43c0-18.5,7.6-38.7,21-50.9c9.8-9,22.6-14.2,39.2-14.2c7.4,0,15.5,1.4,22,4.6
		C942.3,350,947,354.1,950.8,359.3L950.8,359.3L950.8,359.3z M917.6,366.9c-8.7,0-16.3,2.2-23.2,9c-8.4,8.2-12.2,19.9-12.2,31
		c0,10.3,3.3,19.1,8.7,24.8c5.7,6.3,12.8,8.4,20.7,8.4c9.3,0,17.4-2.7,24-9.3c7.4-7.3,11.7-19.9,11.7-31.6s-4.4-19.1-8.7-23.7
		C932.8,369.6,925.7,366.9,917.6,366.9L917.6,366.9z"/>
	<path class="st1" d="M1158.3,345.9h26.7l-14.2,114.6h-26.7L1158.3,345.9z M1159.9,301.3c0-5.2,1.9-10.3,5.7-14.2
		c3.3-3.3,8.2-5.7,13.9-5.7c4.6,0,8.4,1.6,10.9,4.1c2.4,2.4,4.4,6,4.4,10.3s-1.9,10.1-5.4,13.9c-3.3,3.5-8.7,6-14.4,6
		c-5.2,0-8.4-1.9-10.6-4.1C1161.8,309.4,1159.9,305.6,1159.9,301.3L1159.9,301.3z"/>
	<path class="st1" d="M1224.9,447.2l-9.3,75.7h-26.7l21.8-177h26.7l-1.6,12.5c3.8-5.2,8.2-8.4,13.6-10.9c6.8-3.3,13.3-4.6,20.4-4.6
		c14.4,0,28.1,6,36.5,14.7c8.4,8.7,14.4,22.3,14.4,38.9c0,19.9-8.2,39.2-19.3,51.2c-9.8,10.3-22.1,16.6-38.1,16.6
		c-9.5,0-18.5-1.9-25.9-6.3C1232.5,455.1,1228.1,451,1224.9,447.2L1224.9,447.2z M1263.5,366.9c-8.4,0-15.8,1.6-22.9,8.4
		c-7.9,7.6-12.5,20.4-12.5,33.2c0,6.5,1.1,15.8,7.6,22.6c4.9,5.2,12.5,9,21.8,9s16.6-3.3,22.6-9.3c7.3-7.3,13.1-19.6,13.1-32.1
		c0-9.5-3.3-17.7-8.2-23.1C1279.3,369.4,1272.2,366.9,1263.5,366.9L1263.5,366.9L1263.5,366.9z"/>
	<path class="st1" d="M1419.1,421.9l21,12.5c-5.7,9.5-13.6,16.9-21.2,21.5c-6.5,3.8-16.9,8.2-32.1,8.2c-14.2,0-26.4-3.8-36.8-14.4
		c-9-9-15.5-22.9-15.5-40.8c0-19.6,7.4-36.8,19.9-49c11.2-10.9,24.8-16.9,41.9-16.9c10.6,0,24,2.2,34.6,13.4
		c8.7,9,14.2,23.4,14.2,40c0,3.5-0.3,8.2-1.4,13.4h-81.9c0,8.2,3,17.4,8.4,23.1c3.5,3.8,9.8,7.4,18.8,7.4c6.3,0,13.1-1.9,18.2-5.2
		C1411.7,432,1416.4,426.8,1419.1,421.9L1419.1,421.9L1419.1,421.9z M1365.7,387.9h53.4c-0.8-5.7-3.5-12.2-6.8-15.8
		c-3.8-4.1-10.1-6.3-16.6-6.3s-13.6,2.2-19.3,6.8C1371.7,376.4,1367.9,382.4,1365.7,387.9L1365.7,387.9L1365.7,387.9z"/>
	<path class="st1" d="M1482.8,262.1h26.7L1485,460.5h-26.7L1482.8,262.1L1482.8,262.1z"/>
	<path class="st1" d="M1524.7,345.9h26.7l-14.2,114.6h-26.7L1524.7,345.9z M1526.3,301.3c0-5.2,1.9-10.3,5.7-14.2
		c3.3-3.3,8.2-5.7,13.9-5.7c4.6,0,8.4,1.6,10.9,4.1c2.5,2.4,4.4,6,4.4,10.3s-1.9,10.1-5.4,13.9c-3.3,3.5-8.7,6-14.4,6
		c-5.2,0-8.4-1.9-10.6-4.1C1528.2,309.4,1526.3,305.6,1526.3,301.3L1526.3,301.3z"/>
	<path class="st1" d="M1562.7,460.5l14.2-114.6h26.7l-1.4,10.3c3.5-4.4,7.1-6.8,11.4-9c6.8-3.3,12.8-4.4,19.6-4.4
		c13.9,0,22.3,4.9,27.2,9.8c6,6,10.3,15.2,10.3,27.2c0,4.4-0.5,9.3-2.5,24.2l-7.1,56.4h-26.7l7.3-59.1c1.4-10.1,1.4-14.2,1.4-15.2
		c0-4.6-0.8-10.6-5.2-14.7c-3.5-3.3-8.7-4.6-13.6-4.6c-9.5,0-15,4.1-17.2,6.3c-7.1,6.8-9.5,18.5-11.2,32.1l-6.8,55.3L1562.7,460.5
		L1562.7,460.5L1562.7,460.5z"/>
	<path class="st1" d="M1772.7,421.9l21,12.5c-5.7,9.5-13.6,16.9-21.2,21.5c-6.5,3.8-16.9,8.2-32.1,8.2c-14.2,0-26.4-3.8-36.8-14.4
		c-9-9-15.5-22.9-15.5-40.8c0-19.6,7.3-36.8,19.9-49c11.2-10.9,24.8-16.9,41.9-16.9c10.6,0,24,2.2,34.6,13.4
		c8.7,9,14.2,23.4,14.2,40c0,3.5-0.3,8.2-1.4,13.4h-81.9c0,8.2,3,17.4,8.4,23.1c3.5,3.8,9.8,7.4,18.8,7.4c6.3,0,13.1-1.9,18.2-5.2
		C1765.3,432,1770,426.8,1772.7,421.9L1772.7,421.9L1772.7,421.9z M1719.3,387.9h53.3c-0.8-5.7-3.5-12.2-6.8-15.8
		c-3.8-4.1-10.1-6.3-16.6-6.3s-13.6,2.2-19.3,6.8C1725.3,376.4,1721.5,382.4,1719.3,387.9L1719.3,387.9z"/>
	<path class="st1" d="M1126.9,293.4c-8.4-9.5-20.5-14.9-33.1-14.9h-41.2c-19.7,0-36.5,14.8-38.8,34.4l-8.9,72.8h-0.1l-9.2,74.9h27.8
		l8.7-71.5h59.1c22.3,0,41.2-16.7,43.9-38.9l2.7-22.1C1139.2,315.6,1135.3,302.9,1126.9,293.4L1126.9,293.4L1126.9,293.4z
		 M1110.6,324.8l-2.7,22.1c-1,8.5-8.3,14.9-16.9,14.9h-55.8l5.6-45.7c0.7-6,5.8-10.5,11.8-10.5h41.2c4.9,0,9.5,2,12.7,5.7
		S1111.2,319.9,1110.6,324.8L1110.6,324.8z"/>
</g>
</svg>
