<?xml version="1.0" encoding="UTF-8" standalone="no"?>
<svg
   width="416.20532"
   height="69.03479"
   viewBox="0 0 110.12099 18.265456"
   version="1.1"
   id="svg8"
   xml:space="preserve"
   xmlns="http://www.w3.org/2000/svg"
   xmlns:svg="http://www.w3.org/2000/svg"
   xmlns:rdf="http://www.w3.org/1999/02/22-rdf-syntax-ns#"
   xmlns:cc="http://creativecommons.org/ns#"
   xmlns:dc="http://purl.org/dc/elements/1.1/"><defs
     id="defs2"><style
       id="style1">
      .cls-1, .cls-2 {
        stroke-width: 0px;
      }

      .cls-2 {
        fill: url(#Gradient_bez_nazwy_3);
        fill-rule: evenodd;
      }
    </style></defs><metadata
     id="metadata5"><rdf:RDF><cc:Work
         rdf:about=""><dc:format>image/svg+xml</dc:format><dc:type
           rdf:resource="http://purl.org/dc/dcmitype/StillImage" /></cc:Work></rdf:RDF></metadata><style
     type="text/css"
     id="style833">
	.st0{fill-rule:evenodd;clip-rule:evenodd;fill:#22CB83;}
</style><g
     id="g262"
     style="display:inline"
     transform="translate(-353.19898,-106.86877)"><rect
       style="display:none;opacity:1;fill:#121111;fill-opacity:1;stroke:none;stroke-width:0.207151;stroke-dasharray:none;stroke-dashoffset:0;stroke-opacity:1"
       id="rect245"
       width="148.15852"
       height="61.01429"
       x="333.95261"
       y="85.494354"
       ry="1.7842638" /><g
       id="g261"
       style="display:inline;opacity:1"
       transform="matrix(1.0611914,0,0,1.0611914,-6.643447,-45.1515)"><g
         id="g258"
         transform="matrix(0.05804061,0,0,0.05804061,341.72033,130.10831)"
         style="display:inline;fill:#ffffff;fill-opacity:1"><path
           d="m 568.83545,359.3 1.6,-13.4 h 26.7 l -14.2,114.6 h -26.7 l 1.4,-12 c -3.8,4.1 -9.5,9 -15.2,11.4 -5.7,2.4 -13.6,4.1 -21,4.1 -16.9,0 -27,-7.1 -32.7,-12.5 -9,-8.7 -15.8,-24 -15.8,-41.4 0,-17.4 6,-37.3 19.9,-51.2 11.7,-11.7 25.9,-16.1 41.9,-16.1 7.6,0 14.4,1.4 21,4.9 4.6,2.6 9.2,6.4 13.1,11.6 z m -32.7,7.6 c -10.9,0 -18.2,4.6 -22.9,9 -7.4,7.1 -12.8,19.3 -12.8,32.1 0,10.1 3.8,18.5 9,24 4.9,5.2 11.2,8.2 19.3,8.2 12,0 20.2,-5.2 25,-10.1 7.6,-7.9 11.7,-20.1 11.7,-31.3 0,-9.5 -3.3,-18.5 -9,-24.2 -4,-4.2 -10.5,-7.7 -20.3,-7.7 z"
           id="path245"
           style="fill:#ffffff;fill-opacity:1" /><path
           d="m 636.93545,447.2 -9.3,75.7 h -26.7 l 21.8,-177 h 26.7 l -1.6,12.5 c 3.8,-5.2 8.2,-8.4 13.6,-10.9 6.8,-3.3 13.3,-4.6 20.4,-4.6 14.4,0 28,6 36.5,14.7 8.4,8.7 14.4,22.3 14.4,38.9 0,19.9 -8.2,39.2 -19.3,51.2 -9.8,10.3 -22,16.6 -38.1,16.6 -9.5,0 -18.5,-1.9 -25.9,-6.3 -4.9,-2.9 -9.3,-7 -12.5,-10.8 z m 38.6,-80.3 c -8.4,0 -15.8,1.6 -22.9,8.4 -7.9,7.6 -12.5,20.4 -12.5,33.2 0,6.5 1.1,15.8 7.6,22.6 4.9,5.2 12.5,9 21.8,9 9.3,0 16.6,-3.3 22.6,-9.3 7.3,-7.3 13.1,-19.6 13.1,-32.1 0,-9.5 -3.3,-17.7 -8.2,-23.1 -5.7,-6.2 -12.8,-8.7 -21.5,-8.7 z"
           id="path246"
           style="fill:#ffffff;fill-opacity:1" /><path
           d="m 759.53545,345.9 h 26.7 l -14.2,114.6 h -26.7 z m 1.6,-44.6 c 0,-5.2 1.9,-10.3 5.7,-14.2 3.3,-3.3 8.2,-5.7 13.9,-5.7 4.6,0 8.4,1.6 10.9,4.1 2.4,2.4 4.4,6 4.4,10.3 0,4.3 -1.9,10.1 -5.4,13.9 -3.3,3.5 -8.7,6 -14.4,6 -5.2,0 -8.4,-1.9 -10.6,-4.1 -2.6,-2.2 -4.5,-6 -4.5,-10.3 z"
           id="path247"
           style="display:inline;fill:#ffffff;fill-opacity:1" /><path
           d="m 894.73545,359.3 12,-97.2 h 26.7 l -24.5,198.5 h -26.7 l 1.4,-12 c -4.9,5.7 -10.1,9.3 -14.7,11.4 -6.5,3.3 -12.5,4.1 -19.6,4.1 -13.6,0 -24.5,-3.5 -34,-13.1 -10.1,-10.1 -16.3,-25.6 -16.3,-43 0,-18.5 7.6,-38.7 21,-50.9 9.8,-9 22.6,-14.2 39.2,-14.2 7.4,0 15.5,1.4 22,4.6 5,2.5 9.7,6.6 13.5,11.8 z m -33.2,7.6 c -8.7,0 -16.3,2.2 -23.2,9 -8.4,8.2 -12.2,19.9 -12.2,31 0,10.3 3.3,19.1 8.7,24.8 5.7,6.3 12.8,8.4 20.7,8.4 9.3,0 17.4,-2.7 24,-9.3 7.4,-7.3 11.7,-19.9 11.7,-31.6 0,-11.7 -4.4,-19.1 -8.7,-23.7 -5.8,-5.9 -12.9,-8.6 -21,-8.6 z"
           id="path248"
           style="fill:#ffffff;fill-opacity:1" /><path
           d="m 1102.2354,345.9 h 26.7 l -14.2,114.6 h -26.7 z m 1.6,-44.6 c 0,-5.2 1.9,-10.3 5.7,-14.2 3.3,-3.3 8.2,-5.7 13.9,-5.7 4.6,0 8.4,1.6 10.9,4.1 2.4,2.4 4.4,6 4.4,10.3 0,4.3 -1.9,10.1 -5.4,13.9 -3.3,3.5 -8.7,6 -14.4,6 -5.2,0 -8.4,-1.9 -10.6,-4.1 -2.6,-2.2 -4.5,-6 -4.5,-10.3 z"
           id="path249"
           style="fill:#ffffff;fill-opacity:1" /><path
           d="m 1168.8354,447.2 -9.3,75.7 h -26.7 l 21.8,-177 h 26.7 l -1.6,12.5 c 3.8,-5.2 8.2,-8.4 13.6,-10.9 6.8,-3.3 13.3,-4.6 20.4,-4.6 14.4,0 28.1,6 36.5,14.7 8.4,8.7 14.4,22.3 14.4,38.9 0,19.9 -8.2,39.2 -19.3,51.2 -9.8,10.3 -22.1,16.6 -38.1,16.6 -9.5,0 -18.5,-1.9 -25.9,-6.3 -4.9,-2.9 -9.3,-7 -12.5,-10.8 z m 38.6,-80.3 c -8.4,0 -15.8,1.6 -22.9,8.4 -7.9,7.6 -12.5,20.4 -12.5,33.2 0,6.5 1.1,15.8 7.6,22.6 4.9,5.2 12.5,9 21.8,9 9.3,0 16.6,-3.3 22.6,-9.3 7.3,-7.3 13.1,-19.6 13.1,-32.1 0,-9.5 -3.3,-17.7 -8.2,-23.1 -5.7,-6.2 -12.8,-8.7 -21.5,-8.7 z"
           id="path250"
           style="fill:#ffffff;fill-opacity:1" /><path
           d="m 1363.0354,421.9 21,12.5 c -5.7,9.5 -13.6,16.9 -21.2,21.5 -6.5,3.8 -16.9,8.2 -32.1,8.2 -14.2,0 -26.4,-3.8 -36.8,-14.4 -9,-9 -15.5,-22.9 -15.5,-40.8 0,-19.6 7.4,-36.8 19.9,-49 11.2,-10.9 24.8,-16.9 41.9,-16.9 10.6,0 24,2.2 34.6,13.4 8.7,9 14.2,23.4 14.2,40 0,3.5 -0.3,8.2 -1.4,13.4 h -81.9 c 0,8.2 3,17.4 8.4,23.1 3.5,3.8 9.8,7.4 18.8,7.4 6.3,0 13.1,-1.9 18.2,-5.2 4.5,-3.1 9.2,-8.3 11.9,-13.2 z m -53.4,-34 h 53.4 c -0.8,-5.7 -3.5,-12.2 -6.8,-15.8 -3.8,-4.1 -10.1,-6.3 -16.6,-6.3 -6.5,0 -13.6,2.2 -19.3,6.8 -4.7,3.8 -8.5,9.8 -10.7,15.3 z"
           id="path251"
           style="fill:#ffffff;fill-opacity:1" /><path
           d="m 1426.7354,262.1 h 26.7 l -24.5,198.4 h -26.7 z"
           id="path252"
           style="fill:#ffffff;fill-opacity:1" /><path
           d="m 1468.6354,345.9 h 26.7 l -14.2,114.6 h -26.7 z m 1.6,-44.6 c 0,-5.2 1.9,-10.3 5.7,-14.2 3.3,-3.3 8.2,-5.7 13.9,-5.7 4.6,0 8.4,1.6 10.9,4.1 2.5,2.4 4.4,6 4.4,10.3 0,4.3 -1.9,10.1 -5.4,13.9 -3.3,3.5 -8.7,6 -14.4,6 -5.2,0 -8.4,-1.9 -10.6,-4.1 -2.6,-2.2 -4.5,-6 -4.5,-10.3 z"
           id="path253"
           style="fill:#ffffff;fill-opacity:1" /><path
           d="m 1506.6354,460.5 14.2,-114.6 h 26.7 l -1.4,10.3 c 3.5,-4.4 7.1,-6.8 11.4,-9 6.8,-3.3 12.8,-4.4 19.6,-4.4 13.9,0 22.3,4.9 27.2,9.8 6,6 10.3,15.2 10.3,27.2 0,4.4 -0.5,9.3 -2.5,24.2 l -7.1,56.4 h -26.7 l 7.3,-59.1 c 1.4,-10.1 1.4,-14.2 1.4,-15.2 0,-4.6 -0.8,-10.6 -5.2,-14.7 -3.5,-3.3 -8.7,-4.6 -13.6,-4.6 -9.5,0 -15,4.1 -17.2,6.3 -7.1,6.8 -9.5,18.5 -11.2,32.1 l -6.8,55.3 z"
           id="path254"
           style="fill:#ffffff;fill-opacity:1" /><path
           d="m 1716.6354,421.9 21,12.5 c -5.7,9.5 -13.6,16.9 -21.2,21.5 -6.5,3.8 -16.9,8.2 -32.1,8.2 -14.2,0 -26.4,-3.8 -36.8,-14.4 -9,-9 -15.5,-22.9 -15.5,-40.8 0,-19.6 7.3,-36.8 19.9,-49 11.2,-10.9 24.8,-16.9 41.9,-16.9 10.6,0 24,2.2 34.6,13.4 8.7,9 14.2,23.4 14.2,40 0,3.5 -0.3,8.2 -1.4,13.4 h -81.9 c 0,8.2 3,17.4 8.4,23.1 3.5,3.8 9.8,7.4 18.8,7.4 6.3,0 13.1,-1.9 18.2,-5.2 4.5,-3.1 9.2,-8.3 11.9,-13.2 z m -53.4,-34 h 53.3 c -0.8,-5.7 -3.5,-12.2 -6.8,-15.8 -3.8,-4.1 -10.1,-6.3 -16.6,-6.3 -6.5,0 -13.6,2.2 -19.3,6.8 -4.6,3.8 -8.4,9.8 -10.6,15.3 z"
           id="path255"
           style="fill:#ffffff;fill-opacity:1" /><path
           d="m 1126.9,293.4 c -8.4,-9.5 -20.5,-14.9 -33.1,-14.9 h -41.2 c -19.7,0 -36.5,14.8 -38.8,34.4 l -8.9,72.8 h -0.1 l -9.2,74.9 h 27.8 l 8.7,-71.5 h 59.1 c 22.3,0 41.2,-16.7 43.9,-38.9 l 2.7,-22.1 c 1.4,-12.5 -2.5,-25.2 -10.9,-34.7 z m -16.3,31.4 -2.7,22.1 c -1,8.5 -8.3,14.9 -16.9,14.9 h -55.8 l 5.6,-45.7 c 0.7,-6 5.8,-10.5 11.8,-10.5 h 41.2 c 4.9,0 9.5,2 12.7,5.7 3.2,3.7 4.7,8.6 4.1,13.5 z"
           id="path256"
           style="display:none;opacity:0.376;fill:#ffffff;fill-opacity:1" /><path
           style="font-size:14.9461px;line-height:1.25;font-family:'The Future';-inkscape-font-specification:'The Future';display:inline;opacity:1;fill:#ffffff;fill-opacity:1;stroke-width:4.82831"
           d="m 976.30051,389.07379 h 27.49829 c 38.2227,0 70.6608,-4.88216 76.456,-52.13145 4.703,-38.34381 -25.0657,-58.09221 -63.2884,-58.09221 h -54.83657 l -22.30142,181.82632 h 27.33828 z m 9.7137,-83.32216 h 29.37879 c 27.4983,0 40.614,12.28841 38.2955,31.19071 -2.4353,19.85553 -17.5829,24.97422 -45.0812,24.97422 h -29.37882 z"
           id="path257"
           aria-label="P" /><path
           id="path258"
           style="display:inline;opacity:1;fill:#ffffff;fill-opacity:1;stroke:none;stroke-width:0.235196px;stroke-linecap:butt;stroke-linejoin:miter;stroke-opacity:1"
           d="m 363.7662,147.83356 -0.43453,3.56985 h 1.62681 c 0.4557,0 1.19737,-0.12212 1.56686,-0.42651 0.36797,-0.30316 0.56623,-0.65846 0.65542,-1.31459 0.10886,-0.80098 -0.20445,-1.17442 -0.5741,-1.49433 -0.45622,-0.39483 -1.26112,-0.32707 -1.31168,-0.33442 -0.0506,-0.007 -1.52878,0 -1.52878,0 z m -1.12904,9.27555 h -1.53999 l 1.29612,-10.64801 h 2.40277 c 0.38458,0 2.02741,0.0468 2.61375,0.35341 0.58633,0.30663 1.10489,0.86273 1.23606,1.8346 0.13117,0.97187 -0.0449,1.58623 -0.32668,2.15681 -0.35907,0.72715 -1.12701,1.67348 -2.5659,2.09445 l 2.71299,4.20781 h -1.61009 l -2.51087,-4.15072 h -1.20557 z"
           transform="matrix(17.229316,0,0,17.229316,-5887.6075,-2241.6772)" /></g><g
         id="g260"
         style="display:inline;opacity:1"
         transform="matrix(0.5661388,0,0,0.5661388,216.49032,7.136139)"><rect
           style="display:none;opacity:1;fill:#121111;fill-opacity:1;stroke:none;stroke-width:0.537737;stroke-opacity:1"
           id="rect258"
           width="30.402546"
           height="30.632336"
           x="249.0818"
           y="242.24997"
           ry="6.8301845"
           transform="matrix(1,0,-0.12225717,0.99249846,0,0)" /><path
           id="path259"
           style="display:inline;opacity:1;fill:#22cb83;fill-opacity:1;stroke:none;stroke-width:0.535716;stroke-opacity:1"
           d="m 226.29862,240.43257 c -3.78393,0 -7.20255,3.02337 -7.66516,6.77892 l -2.0743,16.84083 h 4.46174 c 1.47405,0 2.76741,-0.96616 3.19154,-2.37764 l 3.87315,-12.96768 c 0.81351,-2.72561 3.31625,-4.58886 6.15311,-4.58886 h 4.4018 c 3.63646,0 6.24364,3.52485 5.18676,7.00835 l -0.45888,1.50223 c -0.73008,2.40578 -2.94828,4.0535 -5.4653,4.0535 -0.75789,0 -1.25152,0.79242 -0.91777,1.47382 l 4.43642,8.51059 h -3.44889 l -3.76876,-7.1546 c -1.3489,-2.73256 0.63991,-5.93763 3.69228,-5.93763 1.15422,0 2.17618,-0.75118 2.50992,-1.85673 l 0.4589,-1.50172 c 0.4589,-1.50187 -0.66024,-3.01067 -2.22468,-3.01067 h -4.4018 c -1.47405,0 -2.76688,0.96616 -3.19102,2.37763 l -3.87315,12.97441 c -0.8135,2.72561 -3.31677,4.58938 -6.15363,4.58938 h -4.09846 c 0.85831,2.19351 2.97022,3.68866 5.63119,3.68866 h 16.74213 c 3.78392,0 7.20307,-3.02338 7.66569,-6.77891 l 2.0748,-16.84496 c 0.46261,-3.75555 -2.21107,-6.77892 -5.99499,-6.77892 z" /></g></g></g></svg>
