<svg width="24" height="24" viewBox="0 0 24 24" fill="none" xmlns="http://www.w3.org/2000/svg">
<path d="M3 14H15C15.5304 14 16.0391 14.2107 16.4142 14.5858C16.7893 14.9609 17 15.4696 17 16V19C17 19.5304 16.7893 20.0391 16.4142 20.4142C16.0391 20.7893 15.5304 21 15 21H5C4.46957 21 3.96086 20.7893 3.58579 20.4142C3.21071 20.0391 3 19.5304 3 19V9C3 8.46957 3.21071 7.96086 3.58579 7.58579C3.96086 7.21071 4.46957 7 5 7H8C8.53043 7 9.03914 7.21071 9.41421 7.58579C9.78929 7.96086 10 8.46957 10 9V21" stroke="#101113" stroke-width="2" stroke-linecap="round" stroke-linejoin="round"/>
<path d="M18.332 5.22363H18.3365M13 8.7777L15.2222 6.55548C15.6347 6.15859 16.1431 6.15859 16.5556 6.55548L18.7778 8.7777M17.8887 7.88957L18.3331 7.44513C18.7456 7.04824 19.254 7.04824 19.6664 7.44513L20.9998 8.77846M13 4.33333C13 3.97971 13.1405 3.64057 13.3905 3.39052C13.6406 3.14048 13.9797 3 14.3333 3H19.6667C20.0203 3 20.3594 3.14048 20.6095 3.39052C20.8595 3.64057 21 3.97971 21 4.33333V9.66667C21 10.0203 20.8595 10.3594 20.6095 10.6095C20.3594 10.8595 20.0203 11 19.6667 11H14.3333C13.9797 11 13.6406 10.8595 13.3905 10.6095C13.1405 10.3594 13 10.0203 13 9.66667V4.33333Z" stroke="#101113" stroke-width="1.37143" stroke-linecap="round" stroke-linejoin="round"/>
</svg>
